<svg aria-hidden="true" style="position: absolute; width: 0; height: 0; overflow: hidden;" version="1.1" xmlns="http://www.w3.org/2000/svg" xmlns:xlink="http://www.w3.org/1999/xlink">
<defs>
<symbol id="icon-Text-input" viewBox="0 0 152 32">
<path d="M11.047 1.25v22.75h-2.969v-22.75h2.969zM18.359 1.25v2.469h-17.578v-2.469h17.578zM28.030 24.313c-1.177 0-2.245-0.198-3.203-0.594-0.948-0.406-1.766-0.974-2.453-1.703-0.677-0.729-1.198-1.594-1.563-2.594s-0.547-2.094-0.547-3.281v-0.656c0-1.375 0.203-2.599 0.609-3.672 0.406-1.083 0.958-2 1.656-2.75s1.49-1.318 2.375-1.703c0.885-0.385 1.802-0.578 2.75-0.578 1.209 0 2.25 0.208 3.125 0.625 0.885 0.417 1.609 1 2.172 1.75 0.562 0.74 0.979 1.615 1.25 2.625 0.271 1 0.406 2.094 0.406 3.281v1.297h-12.625v-2.359h9.734v-0.219c-0.042-0.75-0.198-1.479-0.469-2.188-0.261-0.708-0.677-1.292-1.25-1.75s-1.354-0.688-2.344-0.688c-0.656 0-1.26 0.141-1.812 0.422-0.552 0.271-1.026 0.677-1.422 1.219s-0.703 1.203-0.922 1.984c-0.219 0.781-0.328 1.682-0.328 2.703v0.656c0 0.802 0.109 1.557 0.328 2.266 0.229 0.698 0.557 1.313 0.984 1.844 0.438 0.531 0.964 0.948 1.578 1.25 0.625 0.302 1.333 0.453 2.125 0.453 1.021 0 1.886-0.208 2.594-0.625s1.328-0.974 1.859-1.672l1.75 1.391c-0.365 0.552-0.828 1.078-1.391 1.578s-1.255 0.906-2.078 1.219c-0.813 0.312-1.776 0.469-2.89 0.469zM41.216 7.094l3.703 6.156 3.75-6.156h3.391l-5.531 8.344 5.703 8.563h-3.344l-3.906-6.344-3.906 6.344h-3.359l5.687-8.563-5.516-8.344h3.328zM63.496 7.094v2.219h-9.141v-2.219h9.141zM57.449 2.984h2.891v16.828c0 0.573 0.089 1.005 0.266 1.297s0.406 0.484 0.687 0.578c0.281 0.094 0.583 0.141 0.906 0.141 0.239 0 0.49-0.021 0.75-0.063 0.271-0.052 0.474-0.094 0.609-0.125l0.016 2.359c-0.229 0.073-0.531 0.141-0.906 0.203-0.365 0.073-0.807 0.109-1.328 0.109-0.708 0-1.359-0.141-1.953-0.422s-1.068-0.75-1.422-1.406c-0.344-0.667-0.516-1.563-0.516-2.688v-16.813zM80.525 7.094v16.906h-2.906v-16.906h2.906zM77.4 2.609c0-0.469 0.141-0.865 0.422-1.188 0.292-0.323 0.719-0.484 1.281-0.484 0.552 0 0.974 0.161 1.266 0.484 0.302 0.323 0.453 0.719 0.453 1.188 0 0.448-0.151 0.833-0.453 1.156-0.292 0.313-0.714 0.469-1.266 0.469-0.563 0-0.99-0.156-1.281-0.469-0.281-0.323-0.422-0.708-0.422-1.156zM89.336 10.703v13.297h-2.891v-16.906h2.734l0.156 3.609zM88.649 14.906l-1.203-0.047c0.010-1.156 0.182-2.224 0.516-3.203 0.333-0.99 0.802-1.849 1.406-2.578s1.323-1.292 2.156-1.688c0.844-0.406 1.776-0.609 2.797-0.609 0.833 0 1.583 0.115 2.25 0.344 0.667 0.219 1.234 0.573 1.703 1.062 0.479 0.49 0.844 1.125 1.094 1.906 0.25 0.771 0.375 1.714 0.375 2.828v11.078h-2.906v-11.109c0-0.885-0.13-1.594-0.391-2.125-0.26-0.542-0.641-0.932-1.141-1.172-0.5-0.25-1.115-0.375-1.844-0.375-0.719 0-1.375 0.151-1.969 0.453-0.583 0.302-1.089 0.719-1.516 1.25-0.417 0.531-0.745 1.141-0.984 1.828-0.229 0.677-0.344 1.396-0.344 2.156zM108.304 10.344v20.156h-2.906v-23.406h2.656l0.25 3.25zM119.694 15.406v0.328c0 1.229-0.146 2.37-0.438 3.422-0.291 1.042-0.719 1.948-1.281 2.719-0.552 0.771-1.234 1.37-2.047 1.797s-1.745 0.641-2.797 0.641c-1.073 0-2.021-0.177-2.844-0.531s-1.521-0.87-2.094-1.547c-0.573-0.677-1.031-1.49-1.375-2.438-0.333-0.948-0.563-2.016-0.687-3.203v-1.75c0.125-1.25 0.359-2.37 0.703-3.359s0.797-1.833 1.359-2.531c0.573-0.708 1.266-1.245 2.078-1.609 0.813-0.375 1.75-0.563 2.813-0.563s2.005 0.208 2.828 0.625c0.823 0.406 1.516 0.99 2.078 1.75s0.985 1.672 1.266 2.734c0.292 1.052 0.438 2.224 0.438 3.516zM116.788 15.734v-0.328c0-0.844-0.089-1.635-0.266-2.375-0.177-0.75-0.453-1.406-0.828-1.969-0.365-0.573-0.833-1.021-1.406-1.344-0.573-0.333-1.255-0.5-2.047-0.5-0.729 0-1.365 0.125-1.906 0.375-0.531 0.25-0.984 0.589-1.359 1.016-0.375 0.417-0.682 0.896-0.922 1.438-0.229 0.531-0.401 1.083-0.516 1.656v4.047c0.208 0.729 0.5 1.417 0.875 2.063 0.375 0.635 0.875 1.151 1.5 1.547 0.625 0.385 1.411 0.578 2.359 0.578 0.781 0 1.453-0.161 2.015-0.484 0.573-0.333 1.042-0.786 1.406-1.359 0.375-0.573 0.651-1.229 0.828-1.969 0.177-0.75 0.266-1.547 0.266-2.391zM135.006 20.094v-13h2.906v16.906h-2.766l-0.141-3.906zM135.553 16.531l1.203-0.031c0 1.125-0.12 2.167-0.359 3.125-0.229 0.948-0.604 1.771-1.125 2.469s-1.203 1.245-2.047 1.641c-0.844 0.385-1.87 0.578-3.078 0.578-0.823 0-1.578-0.12-2.266-0.359-0.677-0.24-1.26-0.609-1.75-1.109s-0.87-1.151-1.141-1.953c-0.261-0.802-0.391-1.766-0.391-2.891v-10.906h2.891v10.938c0 0.76 0.083 1.391 0.25 1.891 0.177 0.49 0.411 0.88 0.703 1.172 0.302 0.281 0.635 0.479 1 0.594 0.375 0.115 0.76 0.172 1.156 0.172 1.229 0 2.203-0.234 2.922-0.703 0.719-0.479 1.234-1.12 1.547-1.922 0.323-0.813 0.485-1.714 0.485-2.703zM150.676 7.094v2.219h-9.141v-2.219h9.141zM144.629 2.984h2.891v16.828c0 0.573 0.089 1.005 0.266 1.297s0.406 0.484 0.687 0.578c0.281 0.094 0.583 0.141 0.906 0.141 0.239 0 0.49-0.021 0.75-0.063 0.271-0.052 0.474-0.094 0.609-0.125l0.016 2.359c-0.229 0.073-0.531 0.141-0.906 0.203-0.365 0.073-0.807 0.109-1.328 0.109-0.708 0-1.359-0.141-1.953-0.422s-1.068-0.75-1.422-1.406c-0.344-0.667-0.516-1.563-0.516-2.688v-16.813z"></path>
</symbol>
<symbol id="icon-email" viewBox="0 0 24 32">
<path d="M20 8h-16c-1.1 0-1.99 0.9-1.99 2l-0.010 12c0 1.1 0.9 2 2 2h16c1.1 0 2-0.9 2-2v-12c0-1.1-0.9-2-2-2zM19.6 12.25l-7.070 4.42c-0.32 0.2-0.74 0.2-1.060 0l-7.070-4.42c-0.25-0.16-0.4-0.43-0.4-0.72 0-0.67 0.73-1.070 1.3-0.72l6.7 4.19 6.7-4.19c0.57-0.35 1.3 0.050 1.3 0.72 0 0.29-0.15 0.56-0.4 0.72z"></path>
</symbol>
<symbol id="icon-phone" viewBox="0 0 24 32">
<path d="M19.635 18.487l-2.451-0.28c-0.589-0.067-1.167 0.135-1.582 0.55l-1.775 1.775c-2.731-1.389-4.969-3.618-6.359-6.359l1.785-1.785c0.415-0.415 0.618-0.994 0.55-1.582l-0.28-2.432c-0.116-0.975-0.936-1.708-1.92-1.708h-1.669c-1.090 0-1.997 0.907-1.93 1.997 0.511 8.24 7.102 14.821 15.332 15.332 1.090 0.068 1.997-0.839 1.997-1.93v-1.669c0.010-0.975-0.724-1.795-1.698-1.911z"></path>
</symbol>
<symbol id="icon-person" viewBox="0 0 32 32">
<path fill="#4d5ae5" style="fill: var(--color1, #4d5ae5)" d="M12 16c2.21 0 4-1.79 4-4s-1.79-4-4-4c-2.21 0-4 1.79-4 4s1.79 4 4 4zM12 18c-2.67 0-8 1.34-8 4v1c0 0.55 0.45 1 1 1h14c0.55 0 1-0.45 1-1v-1c0-2.66-5.33-4-8-4z"></path>
<path fill="none" stroke="#2e2f42" style="stroke: var(--color2, #2e2f42)" stroke-linejoin="miter" stroke-linecap="round" stroke-miterlimit="4" stroke-width="1.6667" d="M30.167 4.833v22.333"></path>
</symbol>
<symbol id="icon-close" viewBox="0 0 32 32">
<path d="M32 3.223l-3.223-3.223-12.777 12.777-12.777-12.777-3.223 3.223 12.777 12.777-12.777 12.777 3.223 3.223 12.777-12.777 12.777 12.777 3.223-3.223-12.777-12.777 12.777-12.777z"></path>
</symbol>
<symbol id="icon-vector" viewBox="0 0 32 32">
<path fill="#fff" style="fill: var(--color3, #fff)" d="M32 2.667l-32 15 10.227 3.156 15.773-12.323-11.998 13.488 0.010 0.003-0.012-0.003v7.345l5.735-5.576 7.265 2.242 5-23.333z"></path>
</symbol>
</defs>
</svg>
